<?xml version="1.0" encoding="utf-8"?>
<!-- Generator: Adobe Illustrator 16.0.0, SVG Export Plug-In . SVG Version: 6.00 Build 0)  -->
<!DOCTYPE svg PUBLIC "-//W3C//DTD SVG 1.1//EN" "http://www.w3.org/Graphics/SVG/1.1/DTD/svg11.dtd">
<svg version="1.1" id="Layer_1" xmlns="http://www.w3.org/2000/svg" xmlns:xlink="http://www.w3.org/1999/xlink" x="0px" y="0px"
	 width="144px" height="148px" viewBox="-21.5 -23.5 144 148" enable-background="new -21.5 -23.5 144 148" xml:space="preserve">
<circle fill="#749A01" cx="50.5" cy="50.25" r="68"/>
<g id="Your_Icon">
	<path fill="#FFFFFF" d="M50.5,61.986c6.064,0,10.98-4.916,10.98-10.98V26.12c0-6.064-4.916-10.981-10.98-10.981
		S39.519,20.055,39.519,26.12v24.886C39.519,57.07,44.436,61.986,50.5,61.986z"/>
	<path fill="#FFFFFF" d="M66.887,41.886c-1.244,0-2.253,1.008-2.253,2.251v6.868c0,7.793-6.341,14.135-14.134,14.135
		c-7.794,0-14.135-6.342-14.135-14.135v-6.868c0-1.244-1.008-2.251-2.251-2.251c-1.244,0-2.252,1.008-2.252,2.251v6.868
		c0,10.277,8.361,18.639,18.639,18.639s18.639-8.361,18.639-18.639v-6.868C69.139,42.894,68.131,41.886,66.887,41.886z"/>
	<path fill="#FFFFFF" d="M59.79,81.356h-7.038v-10.06c-0.74,0.09-1.488,0.15-2.252,0.15c-0.764,0-1.513-0.061-2.252-0.15v10.06
		H41.21c-1.244,0-2.252,1.009-2.252,2.253v2.252h23.083v-2.252C62.042,82.365,61.033,81.356,59.79,81.356z"/>
</g>
</svg>
