<svg id="Layer_1" data-name="Layer 1" xmlns="http://www.w3.org/2000/svg" xmlns:xlink="http://www.w3.org/1999/xlink" viewBox="0 0 102.67 50.26"><defs><style>.cls-1{fill:none;}.cls-2{fill:url(#linear-gradient);}.cls-3{clip-path:url(#clip-path);}.cls-4{fill:#c2c1c1;}.cls-5{fill:#a7c2cd;}.cls-6{fill:#398aa7;}.cls-7{fill:#231815;}.cls-8{fill:#337989;}.cls-9{fill:#fff;}</style><linearGradient id="linear-gradient" x1="5.55" y1="1.92" x2="98.17" y2="48.81" gradientUnits="userSpaceOnUse"><stop offset="0" stop-color="#0087c3"/><stop offset="0.03" stop-color="#007fb8"/><stop offset="0.11" stop-color="#00699b"/><stop offset="0.21" stop-color="#015784"/><stop offset="0.31" stop-color="#014a72"/><stop offset="0.44" stop-color="#014065"/><stop offset="0.62" stop-color="#013b5e"/><stop offset="1" stop-color="#01395c"/></linearGradient><clipPath id="clip-path" transform="translate(0 0.01)"><rect class="cls-1" width="102.67" height="50.17" rx="5" ry="5"/></clipPath></defs><title>sharpshark</title><rect class="cls-2" y="0.01" width="102.67" height="50.17" rx="5" ry="5"/><g class="cls-3"><polygon class="cls-4" points="59.01 39.66 61.6 42.31 62.51 39.18 59.01 39.66"/><polygon class="cls-4" points="62.51 39.13 65.11 41.78 66.01 38.65 62.51 39.13"/><polygon class="cls-4" points="66.01 38.6 68.61 41.25 69.51 38.12 66.01 38.6"/><polygon class="cls-4" points="69.51 38.06 72.11 40.72 73.02 37.59 69.51 38.06"/><polygon class="cls-4" points="73.02 37.53 75.61 40.19 76.52 37.06 73.02 37.53"/><polygon class="cls-4" points="76.52 37.01 79.11 39.66 80.02 36.53 76.52 37.01"/><polygon class="cls-4" points="79.7 35.97 82.29 38.62 83.2 35.49 79.7 35.97"/><polygon class="cls-4" points="83.52 34.91 86.11 37.56 87.02 34.43 83.52 34.91"/><polygon class="cls-4" points="86.39 33.34 88.98 36 89.89 32.86 86.39 33.34"/><polygon class="cls-4" points="89.89 37.13 87.3 34.48 86.39 37.61 89.89 37.13"/><polygon class="cls-4" points="86.55 38.7 83.96 36.04 83.05 39.18 86.55 38.7"/><polygon class="cls-4" points="83.2 40.26 80.61 37.61 79.7 40.74 83.2 40.26"/><polygon class="cls-4" points="79.55 41.3 76.96 38.65 76.05 41.78 79.55 41.3"/><polygon class="cls-4" points="76.02 41.83 73.42 39.18 72.52 42.31 76.02 41.83"/><polygon class="cls-4" points="72.52 42.34 69.92 39.68 69.02 42.82 72.52 42.34"/><polygon class="cls-4" points="69.02 42.84 66.42 40.19 65.52 43.32 69.02 42.84"/><polygon class="cls-4" points="65.52 42.89 62.92 40.24 62.02 43.37 65.52 42.89"/><path class="cls-5" d="M54.86,12.87a49.4,49.4,0,0,0-7.81,3.92c-0.76.48-3.67,3.29-3.86,3.42,0,0-12.26,17,15.9,20,0,0,24.88-2.65,30.32-7.62l13.26-2.22V19.23l-10.58-1" transform="translate(0 0.01)"/><path class="cls-5" d="M102.67,36V28.46l-11.09,2.3S86.58,42.69,61.41,43a13.44,13.44,0,0,0,3.44,7.15c0.1,0.12,36.21.08,37.82,0V36Z" transform="translate(0 0.01)"/><path class="cls-6" d="M102.67,0c-0.33.07-19.17,0-19.32,0A173.07,173.07,0,0,0,53.9,13c-2.15,1.23-4.68,2.38-6.84,3.75-0.76.48-3.67,3.29-3.86,3.42a15.35,15.35,0,0,0-2.65,7.92c0,2,14.34,1.22,22.2.37,1.4-.15,22.13-0.87,22.52-1.23h17.41" transform="translate(0 0.01)"/><circle class="cls-7" cx="74.82" cy="22.16" r="2.98"/><path class="cls-6" d="M149.3,45.83" transform="translate(0 0.01)"/><path class="cls-8" d="M148,45" transform="translate(0 0.01)"/><path class="cls-6" d="M98.36,56.7" transform="translate(0 0.01)"/><path class="cls-5" d="M65.52,50.17" transform="translate(0 0.01)"/></g><path class="cls-9" d="M33.56,22.5H28.45l-1.25,5h4.56V31.4H26.23l-1.48,5.73h-3.9l1.47-5.73H18l-1.45,5.73h-4l1.45-5.73H9.7V27.52H15l1.24-5H11.55V18.62h5.72L18.65,13h4l-1.38,5.58h4.28L26.89,13h4l-1.4,5.58h4.11V22.5Zm-9,0H20.2l-1.28,5.1H23.3Z" transform="translate(0 0.01)"/></svg>