<?xml version="1.0" encoding="utf-8"?>
<!-- Generator: Adobe Illustrator 19.2.1, SVG Export Plug-In . SVG Version: 6.00 Build 0)  -->
<svg version="1.1" id="Layer_1" xmlns="http://www.w3.org/2000/svg" xmlns:xlink="http://www.w3.org/1999/xlink" x="0px" y="0px"
	 viewBox="0 0 257.6 115.9" style="enable-background:new 0 0 257.6 115.9;" xml:space="preserve">
<style type="text/css">
	.st0{fill:#C2C1C1;}
	.st1{fill:#337989;}
	.st2{fill:#A7C2CD;}
	.st3{fill:#398AA7;}
</style>
<g>
	<g>
		<polygon class="st0" points="18.5,84.4 21.1,87 22,83.9 		"/>
		<polygon class="st0" points="22,83.8 24.6,86.5 25.5,83.3 		"/>
		<polygon class="st0" points="25.5,83.3 28.1,85.9 29,82.8 		"/>
		<polygon class="st0" points="29,82.8 31.6,85.4 32.5,82.3 		"/>
		<polygon class="st0" points="32.5,82.2 35.1,84.9 36,81.8 		"/>
		<polygon class="st0" points="36,81.7 38.6,84.4 39.5,81.2 		"/>
		<polygon class="st0" points="39.2,80.7 41.8,83.3 42.7,80.2 		"/>
		<polygon class="st0" points="43,79.6 45.6,82.3 46.5,79.1 		"/>
		<polygon class="st0" points="45.9,78 48.4,80.7 49.4,77.6 		"/>
	</g>
	<g>
		<polygon class="st0" points="49.4,81.8 46.8,79.2 45.9,82.3 		"/>
		<polygon class="st0" points="46,83.4 43.4,80.7 42.5,83.9 		"/>
		<polygon class="st0" points="42.7,85 40.1,82.3 39.2,85.4 		"/>
		<polygon class="st0" points="39,86 36.4,83.3 35.5,86.5 		"/>
		<polygon class="st0" points="35.5,86.5 32.9,83.9 32,87 		"/>
		<polygon class="st0" points="32,87 29.4,84.4 28.5,87.5 		"/>
		<polygon class="st0" points="28.5,87.5 25.9,84.9 25,88 		"/>
		<polygon class="st0" points="25,87.6 22.4,84.9 21.5,88.1 		"/>
	</g>
	<path class="st1" d="M114.4,85.7c-0.9,0-8.8-8.8-18.3-6.6c0,0-29.4,13.9-45,31.1c0,0,2.9,4.6,29.6-8.4L114.4,85.7z"/>
	<g>
		<path class="st2" d="M98.7,36.2c0,0-40.5-3.7-84.4,21.4c-2.1,1.2-5.6,2.6-7.8,3.9c-0.8,0.5-3.7,3.3-3.9,3.4c0,0-12.3,17,15.9,20
			c0,0,24.9-2.6,30.3-7.6L91.4,76L98.7,36.2z"/>
		<path class="st2" d="M92.4,36.6c0,0,14.4,0.7,19.3-10.3c0,0,14.6-23.4,22.3-25.4c0,0,2,27.6,15.7,33.1c0,0,16.6,3.2,23,2.6
			c0,0,56.5-1.9,58.1-1.5c0,0,10.4-30,26.9-35.1c0,0-12.8,24.3-7.7,44.8c0,0,2.6,19.9,5.7,26.1c0,0-17.2-6.6-24.5-26.9
			c0,0-58.3,38.9-91.6,45.9c0,0-33.1,7.3-45,8.6c0,0-13.9-12.4-8.8-23.8L92.4,36.6z"/>
		<path class="st2" d="M20.9,87.7c0,0,1.2,15.7,28,14.4c0,0,47.8-3.8,52.9-4.7c0,0,19.6-5.6,21.4-11.5c2.6-8.6-12.8-18.9-17.9-21.7
			L51,75.5C51,75.5,46,87.4,20.9,87.7z"/>
	</g>
	<path class="st3" d="M257.6,0c-16.6,5.1-26.9,35.1-26.9,35.1c-1.5-0.4-58.1,1.5-58.1,1.5c-6.4,0.6-23-2.6-23-2.6
		c-13.7-5.5-15.7-33.1-15.7-33.1c-7.7,2-22.3,25.4-22.3,25.4c-2.9,6.7-9.3,9-13.9,9.9c-6.6-0.4-43.6-1.3-83.4,21.4
		c-2.1,1.2-5.6,2.6-7.8,3.9c-0.8,0.5-3.7,3.3-3.9,3.4c0,0-2.7,3.7-2.7,7.9c0,2,14.3,1.2,22.2,0.4c1.4-0.2,22.1-0.9,22.5-1.2l64.3,0
		c16.7-3.5,50.5-7.9,69.2-18.5s52.9-9.5,52.9-9.5c7.3,20.3,24.5,26.9,24.5,26.9c-3.1-6.2-5.7-26.1-5.7-26.1
		C244.8,24.3,257.6,0,257.6,0z"/>
	<path class="st1" d="M182.4,72.6c0,0,14.9,0.3,20.4,0.9c5.5,0.7,1.1,0,1.1,0s-12.2-0.6,0.3-13L182.4,72.6z"/>
	<circle cx="34.3" cy="66.9" r="3"/>
	<g>
		<path class="st3" d="M108.8,90.5c0.9,0,8.8-8.8,18.3-6.6c0,0,29.4,13.9,45,31.1c0,0-2.9,4.6-29.6-8.4L108.8,90.5z"/>
		<path class="st1" d="M107.4,89.7c0.9,0,8.8-8.8,18.3-6.6c0,0,29.4,13.9,45,31.1c0,0,7.1,0.3-19.6-12.7l-26.3-15.1L107.4,89.7z"/>
	</g>
</g>
</svg>
