<?xml version="1.0" encoding="utf-8"?>
<!-- Generator: Adobe Illustrator 19.2.1, SVG Export Plug-In . SVG Version: 6.00 Build 0)  -->
<svg version="1.1" id="Layer_1" xmlns="http://www.w3.org/2000/svg" xmlns:xlink="http://www.w3.org/1999/xlink" x="0px" y="0px"
	 viewBox="0 0 257.6 182.1" style="enable-background:new 0 0 257.6 182.1;" xml:space="preserve">
<style type="text/css">
	.st0{fill:#213A5B;}
	.st1{fill:#C2C1C1;}
	.st2{fill:#337989;}
	.st3{fill:#A7C2CD;}
	.st4{fill:#398AA7;}
</style>
<g>
	<g>
		<path class="st0" d="M6.7,172.2l7.9-4.6c2.1,3.4,4.8,5.9,9.6,5.9c4,0,6.6-2,6.6-4.8c0-3.3-2.6-4.5-7.1-6.5l-2.4-1
			c-7-3-11.7-6.8-11.7-14.7c0-7.3,5.6-12.9,14.3-12.9c6.2,0,10.6,2.2,13.8,7.8l-7.6,4.9c-1.7-3-3.5-4.2-6.3-4.2
			c-2.9,0-4.7,1.8-4.7,4.2c0,2.9,1.8,4.1,6,5.9l2.4,1c8.3,3.5,12.9,7.2,12.9,15.3c0,8.8-6.9,13.6-16.1,13.6
			C15.4,182.1,9.6,177.8,6.7,172.2z"/>
		<path class="st0" d="M46,134.2h9.7v24.2H76v-24.2h9.7v47.3H76v-14.4H55.8v14.4H46V134.2z"/>
		<path class="st0" d="M110.8,133.8h0.8l21.6,47.7h-10.2l-2.2-5.4h-19.2l-2.2,5.4H90L110.8,133.8z M117.4,168l-3.4-8.2
			c-1.4-3.3-2.9-8.5-2.9-8.5s-1.4,5.1-2.8,8.5l-3.4,8.2H117.4z"/>
		<path class="st0" d="M172.5,181.5h-11.3l-7.8-12c-0.9,0.1-1.9,0.2-2.8,0.2h-3.3v11.8h-9.7v-47.3h13.1c13.2,0,21.2,6.3,21.2,17.9
			c0,7.4-3.3,12-9.1,14.7L172.5,181.5z M150.3,161.3c7.9,0,11.4-2.5,11.4-9.2c0-6.7-3.6-9.3-11.4-9.3h-3.1v18.5H150.3z"/>
		<path class="st0" d="M191.3,151.1l12.5-16.9h11.1L199,155.6l17.8,25.9H205l-12.6-18.6l-4.6,5.5v13.1h-9.7v-47.3h9.7v16.4
			c0,2.3-0.3,5.6-0.6,7.9C188.3,156,189.8,153,191.3,151.1z"/>
		<path class="st0" d="M217,172.2l7.9-4.6c2.1,3.4,4.8,5.9,9.6,5.9c4,0,6.6-2,6.6-4.8c0-3.3-2.6-4.5-7.1-6.5l-2.4-1
			c-7-3-11.7-6.8-11.7-14.7c0-7.3,5.6-12.9,14.3-12.9c6.2,0,10.6,2.2,13.8,7.8l-7.6,4.9c-1.7-3-3.5-4.2-6.3-4.2
			c-2.9,0-4.7,1.8-4.7,4.2c0,2.9,1.8,4.1,6,5.9l2.4,1c8.3,3.5,12.9,7.2,12.9,15.3c0,8.8-6.9,13.6-16.1,13.6
			C225.7,182.1,219.9,177.8,217,172.2z"/>
	</g>
	<g>
		<polygon class="st1" points="18.5,84.4 21.1,87 22,83.9 		"/>
		<polygon class="st1" points="22,83.8 24.6,86.5 25.5,83.3 		"/>
		<polygon class="st1" points="25.5,83.3 28.1,85.9 29,82.8 		"/>
		<polygon class="st1" points="29,82.8 31.6,85.4 32.5,82.3 		"/>
		<polygon class="st1" points="32.5,82.2 35.1,84.9 36,81.8 		"/>
		<polygon class="st1" points="36,81.7 38.6,84.4 39.5,81.2 		"/>
		<polygon class="st1" points="39.2,80.7 41.8,83.3 42.7,80.2 		"/>
		<polygon class="st1" points="43,79.6 45.6,82.3 46.5,79.1 		"/>
		<polygon class="st1" points="45.9,78 48.4,80.7 49.4,77.6 		"/>
	</g>
	<g>
		<polygon class="st1" points="49.4,81.8 46.8,79.2 45.9,82.3 		"/>
		<polygon class="st1" points="46,83.4 43.4,80.7 42.5,83.9 		"/>
		<polygon class="st1" points="42.7,85 40.1,82.3 39.2,85.4 		"/>
		<polygon class="st1" points="39,86 36.4,83.3 35.5,86.5 		"/>
		<polygon class="st1" points="35.5,86.5 32.9,83.9 32,87 		"/>
		<polygon class="st1" points="32,87 29.4,84.4 28.5,87.5 		"/>
		<polygon class="st1" points="28.5,87.5 25.9,84.9 25,88 		"/>
		<polygon class="st1" points="25,87.6 22.4,84.9 21.5,88.1 		"/>
	</g>
	<path class="st2" d="M114.4,85.7c-0.9,0-8.8-8.8-18.3-6.6c0,0-29.4,13.9-45,31.1c0,0,2.9,4.6,29.6-8.4L114.4,85.7z"/>
	<g>
		<path class="st3" d="M98.7,36.2c0,0-40.5-3.7-84.4,21.4c-2.1,1.2-5.6,2.6-7.8,3.9c-0.8,0.5-3.7,3.3-3.9,3.4c0,0-12.3,17,15.9,20
			c0,0,24.9-2.6,30.3-7.6L91.4,76L98.7,36.2z"/>
		<path class="st3" d="M92.4,36.6c0,0,14.4,0.7,19.3-10.3c0,0,14.6-23.4,22.3-25.4c0,0,2,27.6,15.7,33.1c0,0,16.6,3.2,23,2.6
			c0,0,56.5-1.9,58.1-1.5c0,0,10.4-30,26.9-35.1c0,0-12.8,24.3-7.7,44.8c0,0,2.6,19.9,5.7,26.1c0,0-17.2-6.6-24.5-26.9
			c0,0-58.3,38.9-91.6,45.9c0,0-33.1,7.3-45,8.6c0,0-13.9-12.4-8.8-23.8L92.4,36.6z"/>
		<path class="st3" d="M20.9,87.7c0,0,1.2,15.7,28,14.4c0,0,47.8-3.8,52.9-4.7c0,0,19.6-5.6,21.4-11.5c2.6-8.6-12.8-18.9-17.9-21.7
			L51,75.5C51,75.5,46,87.4,20.9,87.7z"/>
	</g>
	<path class="st4" d="M257.6,0c-16.6,5.1-26.9,35.1-26.9,35.1c-1.5-0.4-58.1,1.5-58.1,1.5c-6.4,0.6-23-2.6-23-2.6
		c-13.7-5.5-15.7-33.1-15.7-33.1c-7.7,2-22.3,25.4-22.3,25.4c-2.9,6.7-9.3,9-13.9,9.9c-6.6-0.4-43.6-1.3-83.4,21.4
		c-2.1,1.2-5.6,2.6-7.8,3.9c-0.8,0.5-3.7,3.3-3.9,3.4c0,0-2.7,3.7-2.7,7.9c0,2,14.3,1.2,22.2,0.4c1.4-0.2,22.1-0.9,22.5-1.2l64.3,0
		c16.7-3.5,50.5-7.9,69.2-18.5s52.9-9.5,52.9-9.5c7.3,20.3,24.5,26.9,24.5,26.9c-3.1-6.2-5.7-26.1-5.7-26.1
		C244.8,24.3,257.6,0,257.6,0z"/>
	<path class="st2" d="M182.4,72.6c0,0,14.9,0.3,20.4,0.9c5.5,0.7,1.1,0,1.1,0s-12.2-0.6,0.3-13L182.4,72.6z"/>
	<circle cx="34.3" cy="66.9" r="3"/>
	<g>
		<path class="st4" d="M108.8,90.5c0.9,0,8.8-8.8,18.3-6.6c0,0,29.4,13.9,45,31.1c0,0-2.9,4.6-29.6-8.4L108.8,90.5z"/>
		<path class="st2" d="M107.4,89.7c0.9,0,8.8-8.8,18.3-6.6c0,0,29.4,13.9,45,31.1c0,0,7.1,0.3-19.6-12.7l-26.3-15.1L107.4,89.7z"/>
	</g>
</g>
</svg>
